<mxfile host="app.diagrams.net" agent="Mozilla/5.0 (Macintosh; Intel Mac OS X 10_15_7) AppleWebKit/537.36 (KHTML, like Gecko) Chrome/127.0.0.0 Safari/537.36" version="24.7.7">
  <diagram name="Page-1" id="XMWB82Sk-R7Ftt4hrJkt">
    <mxGraphModel dx="1687" dy="965" grid="1" gridSize="10" guides="1" tooltips="1" connect="1" arrows="1" fold="1" page="1" pageScale="1" pageWidth="850" pageHeight="1100" math="0" shadow="0">
      <root>
        <mxCell id="0" />
        <mxCell id="1" parent="0" />
        <mxCell id="8fFXGHO8zkIslvkPZZyT-1" value="" style="fontColor=#0066CC;verticalAlign=top;verticalLabelPosition=bottom;labelPosition=center;align=center;html=1;outlineConnect=0;fillColor=#CCCCCC;strokeColor=#6881B3;gradientColor=none;gradientDirection=north;strokeWidth=2;shape=mxgraph.networks.pc;" parent="1" vertex="1">
          <mxGeometry x="400" y="750" width="100" height="70" as="geometry" />
        </mxCell>
        <mxCell id="8fFXGHO8zkIslvkPZZyT-27" value="" style="edgeStyle=orthogonalEdgeStyle;rounded=0;orthogonalLoop=1;jettySize=auto;html=1;shape=link;" parent="1" source="8fFXGHO8zkIslvkPZZyT-2" target="8fFXGHO8zkIslvkPZZyT-5" edge="1">
          <mxGeometry relative="1" as="geometry" />
        </mxCell>
        <mxCell id="8fFXGHO8zkIslvkPZZyT-2" value="" style="sketch=0;points=[[0.5,0,0],[1,0.5,0],[0.5,1,0],[0,0.5,0],[0.145,0.145,0],[0.8555,0.145,0],[0.855,0.8555,0],[0.145,0.855,0]];verticalLabelPosition=bottom;html=1;verticalAlign=top;aspect=fixed;align=center;pointerEvents=1;shape=mxgraph.cisco19.rect;prIcon=router;fillColor=#FAFAFA;strokeColor=#005073;" parent="1" vertex="1">
          <mxGeometry x="425" y="540" width="50" height="50" as="geometry" />
        </mxCell>
        <mxCell id="8fFXGHO8zkIslvkPZZyT-3" value="Windows 10 Client&amp;nbsp;&lt;div&gt;Wazuh Agent&lt;/div&gt;" style="text;html=1;align=center;verticalAlign=middle;resizable=0;points=[];autosize=1;strokeColor=none;fillColor=none;" parent="1" vertex="1">
          <mxGeometry x="380" y="840" width="130" height="40" as="geometry" />
        </mxCell>
        <mxCell id="8fFXGHO8zkIslvkPZZyT-30" style="edgeStyle=orthogonalEdgeStyle;rounded=0;orthogonalLoop=1;jettySize=auto;html=1;shape=link;" parent="1" source="8fFXGHO8zkIslvkPZZyT-4" edge="1">
          <mxGeometry relative="1" as="geometry">
            <mxPoint x="250" y="416.75" as="targetPoint" />
          </mxGeometry>
        </mxCell>
        <mxCell id="8fFXGHO8zkIslvkPZZyT-31" value="2.) Receive Events" style="edgeLabel;html=1;align=center;verticalAlign=middle;resizable=0;points=[];" parent="8fFXGHO8zkIslvkPZZyT-30" vertex="1" connectable="0">
          <mxGeometry x="0.0857" y="1" relative="1" as="geometry">
            <mxPoint as="offset" />
          </mxGeometry>
        </mxCell>
        <mxCell id="8fFXGHO8zkIslvkPZZyT-36" value="4.) Enrich IOCS" style="edgeStyle=orthogonalEdgeStyle;rounded=0;orthogonalLoop=1;jettySize=auto;html=1;entryX=0.5;entryY=1;entryDx=0;entryDy=0;shape=link;" parent="1" source="8fFXGHO8zkIslvkPZZyT-4" target="8fFXGHO8zkIslvkPZZyT-10" edge="1">
          <mxGeometry relative="1" as="geometry">
            <Array as="points">
              <mxPoint x="450" y="312" />
            </Array>
          </mxGeometry>
        </mxCell>
        <mxCell id="8fFXGHO8zkIslvkPZZyT-4" value="" style="image;aspect=fixed;perimeter=ellipsePerimeter;html=1;align=center;shadow=0;dashed=0;spacingTop=3;image=img/lib/active_directory/internet_cloud.svg;" parent="1" vertex="1">
          <mxGeometry x="423.41" y="400" width="53.17" height="33.5" as="geometry" />
        </mxCell>
        <mxCell id="8fFXGHO8zkIslvkPZZyT-28" value="" style="edgeStyle=orthogonalEdgeStyle;rounded=0;orthogonalLoop=1;jettySize=auto;html=1;" parent="1" source="8fFXGHO8zkIslvkPZZyT-5" target="8fFXGHO8zkIslvkPZZyT-4" edge="1">
          <mxGeometry relative="1" as="geometry" />
        </mxCell>
        <mxCell id="8fFXGHO8zkIslvkPZZyT-29" value="" style="edgeStyle=orthogonalEdgeStyle;rounded=0;orthogonalLoop=1;jettySize=auto;html=1;shape=link;" parent="1" source="8fFXGHO8zkIslvkPZZyT-5" target="8fFXGHO8zkIslvkPZZyT-4" edge="1">
          <mxGeometry relative="1" as="geometry" />
        </mxCell>
        <mxCell id="8fFXGHO8zkIslvkPZZyT-5" value="Internet" style="text;html=1;align=center;verticalAlign=middle;resizable=0;points=[];autosize=1;strokeColor=none;fillColor=none;" parent="1" vertex="1">
          <mxGeometry x="420" y="470" width="60" height="30" as="geometry" />
        </mxCell>
        <mxCell id="8fFXGHO8zkIslvkPZZyT-8" value="" style="image;aspect=fixed;perimeter=ellipsePerimeter;html=1;align=center;shadow=0;dashed=0;spacingTop=3;image=img/lib/active_directory/internet_cloud.svg;" parent="1" vertex="1">
          <mxGeometry x="600" y="390" width="50" height="31.5" as="geometry" />
        </mxCell>
        <mxCell id="8fFXGHO8zkIslvkPZZyT-9" value="" style="image;aspect=fixed;perimeter=ellipsePerimeter;html=1;align=center;shadow=0;dashed=0;spacingTop=3;image=img/lib/active_directory/internet_cloud.svg;" parent="1" vertex="1">
          <mxGeometry x="195" y="400" width="50" height="31.5" as="geometry" />
        </mxCell>
        <mxCell id="8fFXGHO8zkIslvkPZZyT-34" value="" style="edgeStyle=orthogonalEdgeStyle;rounded=0;orthogonalLoop=1;jettySize=auto;html=1;entryX=0.5;entryY=0;entryDx=0;entryDy=0;shape=link;" parent="1" source="8fFXGHO8zkIslvkPZZyT-10" target="8fFXGHO8zkIslvkPZZyT-9" edge="1">
          <mxGeometry relative="1" as="geometry">
            <mxPoint x="355" y="295.79999999999995" as="targetPoint" />
          </mxGeometry>
        </mxCell>
        <mxCell id="8fFXGHO8zkIslvkPZZyT-35" value="3.) Send Response Action" style="edgeLabel;html=1;align=center;verticalAlign=middle;resizable=0;points=[];" parent="8fFXGHO8zkIslvkPZZyT-34" vertex="1" connectable="0">
          <mxGeometry x="-0.0598" y="-1" relative="1" as="geometry">
            <mxPoint as="offset" />
          </mxGeometry>
        </mxCell>
        <mxCell id="8fFXGHO8zkIslvkPZZyT-39" value="" style="edgeStyle=orthogonalEdgeStyle;rounded=0;orthogonalLoop=1;jettySize=auto;html=1;entryX=0.5;entryY=0;entryDx=0;entryDy=0;" parent="1" source="8fFXGHO8zkIslvkPZZyT-10" target="8fFXGHO8zkIslvkPZZyT-8" edge="1">
          <mxGeometry relative="1" as="geometry">
            <mxPoint x="595" y="296" as="targetPoint" />
          </mxGeometry>
        </mxCell>
        <mxCell id="8fFXGHO8zkIslvkPZZyT-41" value="5.) Send Alerts" style="edgeLabel;html=1;align=center;verticalAlign=middle;resizable=0;points=[];" parent="8fFXGHO8zkIslvkPZZyT-39" vertex="1" connectable="0">
          <mxGeometry x="-0.3562" y="-3" relative="1" as="geometry">
            <mxPoint as="offset" />
          </mxGeometry>
        </mxCell>
        <mxCell id="8fFXGHO8zkIslvkPZZyT-10" value="" style="image;aspect=fixed;perimeter=ellipsePerimeter;html=1;align=center;shadow=0;dashed=0;spacingTop=3;image=img/lib/active_directory/internet_cloud.svg;" parent="1" vertex="1">
          <mxGeometry x="430" y="280" width="50" height="31.5" as="geometry" />
        </mxCell>
        <mxCell id="8fFXGHO8zkIslvkPZZyT-11" value="Wazuh Manager" style="text;html=1;align=center;verticalAlign=middle;resizable=0;points=[];autosize=1;strokeColor=none;fillColor=none;" parent="1" vertex="1">
          <mxGeometry x="165" y="433.5" width="110" height="30" as="geometry" />
        </mxCell>
        <mxCell id="8fFXGHO8zkIslvkPZZyT-13" value="Shuffle" style="text;html=1;align=center;verticalAlign=middle;resizable=0;points=[];autosize=1;strokeColor=none;fillColor=none;" parent="1" vertex="1">
          <mxGeometry x="420" y="311.5" width="60" height="30" as="geometry" />
        </mxCell>
        <mxCell id="8fFXGHO8zkIslvkPZZyT-14" value="" style="fontColor=#0066CC;verticalAlign=top;verticalLabelPosition=bottom;labelPosition=center;align=center;html=1;outlineConnect=0;fillColor=#CCCCCC;strokeColor=#6881B3;gradientColor=none;gradientDirection=north;strokeWidth=2;shape=mxgraph.networks.pc;" parent="1" vertex="1">
          <mxGeometry x="620" y="530" width="100" height="70" as="geometry" />
        </mxCell>
        <mxCell id="8fFXGHO8zkIslvkPZZyT-16" value="SOC Analyst" style="text;html=1;align=center;verticalAlign=middle;resizable=0;points=[];autosize=1;strokeColor=none;fillColor=none;" parent="1" vertex="1">
          <mxGeometry x="710" y="570" width="90" height="30" as="geometry" />
        </mxCell>
        <mxCell id="8fFXGHO8zkIslvkPZZyT-25" value="" style="edgeStyle=none;orthogonalLoop=1;jettySize=auto;html=1;rounded=0;shape=link;entryX=0.5;entryY=1;entryDx=0;entryDy=0;entryPerimeter=0;" parent="1" target="8fFXGHO8zkIslvkPZZyT-2" edge="1">
          <mxGeometry width="100" relative="1" as="geometry">
            <mxPoint x="452.7439006880047" y="750" as="sourcePoint" />
            <mxPoint x="453" y="591" as="targetPoint" />
            <Array as="points" />
          </mxGeometry>
        </mxCell>
        <mxCell id="8fFXGHO8zkIslvkPZZyT-26" value="1.) Send Event" style="edgeLabel;html=1;align=center;verticalAlign=middle;resizable=0;points=[];" parent="8fFXGHO8zkIslvkPZZyT-25" vertex="1" connectable="0">
          <mxGeometry x="-0.1714" y="-1" relative="1" as="geometry">
            <mxPoint as="offset" />
          </mxGeometry>
        </mxCell>
        <mxCell id="8fFXGHO8zkIslvkPZZyT-21" value="Router" style="text;html=1;align=center;verticalAlign=middle;resizable=0;points=[];autosize=1;strokeColor=none;fillColor=none;" parent="1" vertex="1">
          <mxGeometry x="430" y="610" width="60" height="30" as="geometry" />
        </mxCell>
        <mxCell id="8fFXGHO8zkIslvkPZZyT-42" value="" style="edgeStyle=none;orthogonalLoop=1;jettySize=auto;html=1;rounded=0;exitX=1;exitY=0.5;exitDx=0;exitDy=0;shape=link;" parent="1" source="8fFXGHO8zkIslvkPZZyT-4" edge="1">
          <mxGeometry width="100" relative="1" as="geometry">
            <mxPoint x="490" y="390" as="sourcePoint" />
            <mxPoint x="570" y="380" as="targetPoint" />
            <Array as="points" />
          </mxGeometry>
        </mxCell>
        <mxCell id="8fFXGHO8zkIslvkPZZyT-43" value="Send Email" style="edgeStyle=none;orthogonalLoop=1;jettySize=auto;html=1;rounded=0;exitX=1;exitY=1;exitDx=0;exitDy=0;shape=link;" parent="1" source="8fFXGHO8zkIslvkPZZyT-10" edge="1">
          <mxGeometry width="100" relative="1" as="geometry">
            <mxPoint x="470" y="350" as="sourcePoint" />
            <mxPoint x="570" y="380" as="targetPoint" />
            <Array as="points" />
          </mxGeometry>
        </mxCell>
        <mxCell id="8fFXGHO8zkIslvkPZZyT-46" value="TheHive" style="text;html=1;align=center;verticalAlign=middle;resizable=0;points=[];autosize=1;strokeColor=none;fillColor=none;" parent="1" vertex="1">
          <mxGeometry x="595" y="418" width="70" height="30" as="geometry" />
        </mxCell>
        <mxCell id="8fFXGHO8zkIslvkPZZyT-47" value="" style="edgeStyle=none;orthogonalLoop=1;jettySize=auto;html=1;rounded=0;exitX=1;exitY=1;exitDx=0;exitDy=0;entryX=0;entryY=0;entryDx=0;entryDy=0;entryPerimeter=0;shape=link;" parent="1" source="8fFXGHO8zkIslvkPZZyT-4" target="8fFXGHO8zkIslvkPZZyT-14" edge="1">
          <mxGeometry width="100" relative="1" as="geometry">
            <mxPoint x="500" y="490" as="sourcePoint" />
            <mxPoint x="600" y="490" as="targetPoint" />
            <Array as="points" />
          </mxGeometry>
        </mxCell>
        <mxCell id="8fFXGHO8zkIslvkPZZyT-48" value="&amp;nbsp; &amp;nbsp; &amp;nbsp; &amp;nbsp; &amp;nbsp; &amp;nbsp; &amp;nbsp;7.) Send and Receive Email" style="edgeLabel;html=1;align=center;verticalAlign=middle;resizable=0;points=[];" parent="8fFXGHO8zkIslvkPZZyT-47" vertex="1" connectable="0">
          <mxGeometry x="-0.0974" y="-2" relative="1" as="geometry">
            <mxPoint as="offset" />
          </mxGeometry>
        </mxCell>
        <mxCell id="8fFXGHO8zkIslvkPZZyT-50" value="" style="edgeStyle=none;orthogonalLoop=1;jettySize=auto;html=1;rounded=0;entryX=0;entryY=0.5;entryDx=0;entryDy=0;entryPerimeter=0;shape=link;" parent="1" target="8fFXGHO8zkIslvkPZZyT-14" edge="1">
          <mxGeometry width="100" relative="1" as="geometry">
            <mxPoint x="520" y="560" as="sourcePoint" />
            <mxPoint x="580" y="570" as="targetPoint" />
            <Array as="points" />
          </mxGeometry>
        </mxCell>
        <mxCell id="8fFXGHO8zkIslvkPZZyT-51" value="" style="edgeStyle=none;orthogonalLoop=1;jettySize=auto;html=1;rounded=0;exitX=0.75;exitY=1;exitDx=0;exitDy=0;shape=link;" parent="1" source="8fFXGHO8zkIslvkPZZyT-4" edge="1">
          <mxGeometry width="100" relative="1" as="geometry">
            <mxPoint x="480" y="530" as="sourcePoint" />
            <mxPoint x="520" y="560" as="targetPoint" />
            <Array as="points" />
          </mxGeometry>
        </mxCell>
        <mxCell id="8fFXGHO8zkIslvkPZZyT-52" value="8.) Send response&lt;div&gt;To Admin&lt;/div&gt;" style="edgeLabel;html=1;align=center;verticalAlign=middle;resizable=0;points=[];" parent="8fFXGHO8zkIslvkPZZyT-51" vertex="1" connectable="0">
          <mxGeometry x="0.3464" y="-2" relative="1" as="geometry">
            <mxPoint as="offset" />
          </mxGeometry>
        </mxCell>
        <mxCell id="8fFXGHO8zkIslvkPZZyT-53" value="" style="edgeStyle=none;orthogonalLoop=1;jettySize=auto;html=1;rounded=0;entryX=0;entryY=0.75;entryDx=0;entryDy=0;exitX=1;exitY=0;exitDx=0;exitDy=0;" parent="1" source="8fFXGHO8zkIslvkPZZyT-9" target="8fFXGHO8zkIslvkPZZyT-10" edge="1">
          <mxGeometry width="100" relative="1" as="geometry">
            <mxPoint x="280" y="370" as="sourcePoint" />
            <mxPoint x="380" y="370" as="targetPoint" />
            <Array as="points" />
          </mxGeometry>
        </mxCell>
        <mxCell id="8fFXGHO8zkIslvkPZZyT-54" value="3.) Send Alerts" style="edgeLabel;html=1;align=center;verticalAlign=middle;resizable=0;points=[];" parent="8fFXGHO8zkIslvkPZZyT-53" vertex="1" connectable="0">
          <mxGeometry x="-0.174" y="1" relative="1" as="geometry">
            <mxPoint y="1" as="offset" />
          </mxGeometry>
        </mxCell>
        <mxCell id="8fFXGHO8zkIslvkPZZyT-57" value="" style="edgeStyle=orthogonalEdgeStyle;rounded=0;orthogonalLoop=1;jettySize=auto;html=1;" parent="1" source="8fFXGHO8zkIslvkPZZyT-55" edge="1">
          <mxGeometry relative="1" as="geometry">
            <mxPoint x="290" y="1072" as="targetPoint" />
          </mxGeometry>
        </mxCell>
        <mxCell id="8fFXGHO8zkIslvkPZZyT-55" value="Windows 10&amp;nbsp;&lt;div&gt;Sends Event&lt;br&gt;&lt;div&gt;&lt;br&gt;&lt;/div&gt;&lt;/div&gt;" style="text;html=1;align=center;verticalAlign=middle;resizable=0;points=[];autosize=1;strokeColor=none;fillColor=none;" parent="1" vertex="1">
          <mxGeometry x="5" y="1042" width="90" height="60" as="geometry" />
        </mxCell>
        <mxCell id="8fFXGHO8zkIslvkPZZyT-60" value="" style="edgeStyle=orthogonalEdgeStyle;rounded=0;orthogonalLoop=1;jettySize=auto;html=1;" parent="1" source="8fFXGHO8zkIslvkPZZyT-58" target="8fFXGHO8zkIslvkPZZyT-59" edge="1">
          <mxGeometry relative="1" as="geometry" />
        </mxCell>
        <mxCell id="8fFXGHO8zkIslvkPZZyT-62" value="" style="edgeStyle=orthogonalEdgeStyle;rounded=0;orthogonalLoop=1;jettySize=auto;html=1;" parent="1" target="8fFXGHO8zkIslvkPZZyT-61" edge="1">
          <mxGeometry relative="1" as="geometry">
            <mxPoint x="575" y="1110" as="sourcePoint" />
          </mxGeometry>
        </mxCell>
        <mxCell id="8fFXGHO8zkIslvkPZZyT-58" value="Wazuh Manager&lt;div&gt;triggers alerts and Performs&lt;/div&gt;&lt;div&gt;actions&lt;br&gt;&lt;div&gt;&lt;br&gt;&lt;/div&gt;&lt;/div&gt;" style="text;html=1;align=center;verticalAlign=middle;resizable=0;points=[];autosize=1;strokeColor=none;fillColor=none;" parent="1" vertex="1">
          <mxGeometry x="245" y="1040" width="170" height="70" as="geometry" />
        </mxCell>
        <mxCell id="8fFXGHO8zkIslvkPZZyT-64" value="" style="edgeStyle=orthogonalEdgeStyle;rounded=0;orthogonalLoop=1;jettySize=auto;html=1;" parent="1" source="8fFXGHO8zkIslvkPZZyT-59" target="8fFXGHO8zkIslvkPZZyT-63" edge="1">
          <mxGeometry relative="1" as="geometry" />
        </mxCell>
        <mxCell id="8fFXGHO8zkIslvkPZZyT-66" value="" style="edgeStyle=orthogonalEdgeStyle;rounded=0;orthogonalLoop=1;jettySize=auto;html=1;" parent="1" source="8fFXGHO8zkIslvkPZZyT-59" target="8fFXGHO8zkIslvkPZZyT-65" edge="1">
          <mxGeometry relative="1" as="geometry" />
        </mxCell>
        <mxCell id="8fFXGHO8zkIslvkPZZyT-59" value="&lt;div&gt;Shuffle&lt;/div&gt;&lt;div&gt;Receive Wazuh alerts and&amp;nbsp;&lt;/div&gt;&lt;div&gt;sends responsive actions&lt;/div&gt;&lt;div&gt;&lt;div&gt;&lt;br&gt;&lt;/div&gt;&lt;/div&gt;" style="text;html=1;align=center;verticalAlign=middle;resizable=0;points=[];autosize=1;strokeColor=none;fillColor=none;" parent="1" vertex="1">
          <mxGeometry x="495" y="1040" width="170" height="70" as="geometry" />
        </mxCell>
        <mxCell id="8fFXGHO8zkIslvkPZZyT-61" value="&lt;div&gt;&lt;div&gt;TheHive&lt;/div&gt;&lt;/div&gt;&lt;div&gt;Creat alerts in case management&lt;/div&gt;" style="text;html=1;align=center;verticalAlign=middle;resizable=0;points=[];autosize=1;strokeColor=none;fillColor=none;" parent="1" vertex="1">
          <mxGeometry x="475" y="1205" width="200" height="40" as="geometry" />
        </mxCell>
        <mxCell id="8fFXGHO8zkIslvkPZZyT-63" value="&lt;div&gt;Shuffle&lt;/div&gt;&lt;div&gt;Receive Wazuh alerts and&amp;nbsp;&lt;/div&gt;&lt;div&gt;sends responsive actions&lt;/div&gt;&lt;div&gt;&lt;div&gt;&lt;br&gt;&lt;/div&gt;&lt;/div&gt;" style="text;html=1;align=center;verticalAlign=middle;resizable=0;points=[];autosize=1;strokeColor=none;fillColor=none;" parent="1" vertex="1">
          <mxGeometry x="495" y="890" width="170" height="70" as="geometry" />
        </mxCell>
        <mxCell id="8fFXGHO8zkIslvkPZZyT-65" value="&lt;div&gt;Email&lt;/div&gt;&lt;div&gt;send emails and&amp;nbsp;&lt;/div&gt;&lt;div&gt;responsive actions&lt;/div&gt;" style="text;html=1;align=center;verticalAlign=middle;resizable=0;points=[];autosize=1;strokeColor=none;fillColor=none;" parent="1" vertex="1">
          <mxGeometry x="770" y="1045" width="120" height="60" as="geometry" />
        </mxCell>
      </root>
    </mxGraphModel>
  </diagram>
</mxfile>
